Lobster Thai-Regular.ufo
<glyph name="percent" format="1">
  <advance width="1499"/>
  <unicode hex="0025"/>
  <outline>
    <contour>
      <point x="224" y="1563"/>
      <point x="41" y="1315"/>
      <point x="41" y="1001" type="curve" smooth="yes"/>
      <point x="41" y="799"/>
      <point x="119" y="696"/>
      <point x="275" y="696" type="curve" smooth="yes"/>
      <point x="508" y="696"/>
      <point x="695" y="948"/>
      <point x="695" y="1257" type="curve" smooth="yes"/>
      <point x="695" y="1458"/>
      <point x="615" y="1563"/>
      <point x="457" y="1563" type="curve" smooth="yes"/>
    </contour>
    <contour>
      <point x="230" y="1210"/>
      <point x="338" y="1477"/>
      <point x="445" y="1477" type="curve" smooth="yes"/>
      <point x="490" y="1477"/>
      <point x="508" y="1434"/>
      <point x="508" y="1325" type="curve" smooth="yes"/>
      <point x="508" y="1034"/>
      <point x="412" y="780"/>
      <point x="304" y="780" type="curve" smooth="yes"/>
      <point x="252" y="780"/>
      <point x="230" y="834"/>
      <point x="230" y="950" type="curve" smooth="yes"/>
    </contour>
    <contour>
      <point x="1245" y="1540" type="line"/>
      <point x="1098" y="1540" type="line"/>
      <point x="246" y="0" type="line"/>
      <point x="393" y="0" type="line"/>
    </contour>
    <contour>
      <point x="987" y="854"/>
      <point x="804" y="606"/>
      <point x="804" y="293" type="curve" smooth="yes"/>
      <point x="804" y="90"/>
      <point x="882" y="-12"/>
      <point x="1038" y="-12" type="curve" smooth="yes"/>
      <point x="1271" y="-12"/>
      <point x="1458" y="240"/>
      <point x="1458" y="549" type="curve" smooth="yes"/>
      <point x="1458" y="750"/>
      <point x="1378" y="854"/>
      <point x="1220" y="854" type="curve" smooth="yes"/>
    </contour>
    <contour>
      <point x="993" y="502"/>
      <point x="1101" y="768"/>
      <point x="1208" y="768" type="curve" smooth="yes"/>
      <point x="1253" y="768"/>
      <point x="1271" y="725"/>
      <point x="1271" y="616" type="curve" smooth="yes"/>
      <point x="1271" y="326"/>
      <point x="1175" y="72"/>
      <point x="1067" y="72" type="curve" smooth="yes"/>
      <point x="1015" y="72"/>
      <point x="993" y="125"/>
      <point x="993" y="242" type="curve" smooth="yes"/>
    </contour>
  </outline>
</glyph>
<glyph name="plus" format="1">
  <advance width="905"/>
  <unicode hex="002B"/>
  <outline>
    <contour>
      <point x="584" y="1063" type="line"/>
      <point x="420" y="1063" type="line"/>
      <point x="358" y="778" type="line"/>
      <point x="68" y="778" type="line"/>
      <point x="31" y="616" type="line"/>
      <point x="322" y="616" type="line"/>
      <point x="258" y="322" type="line"/>
      <point x="422" y="322" type="line"/>
      <point x="485" y="616" type="line"/>
      <point x="786" y="616" type="line"/>
      <point x="821" y="778" type="line"/>
      <point x="522" y="778" type="line"/>
    </contour>
  </outline>
</glyph>
<glyph name="period" format="1">
  <advance width="539"/>
  <unicode hex="002E"/>
  <outline>
    <contour>
      <point x="389" y="244"/>
      <point x="315" y="317"/>
      <point x="225" y="317" type="curve" smooth="yes"/>
      <point x="135" y="317"/>
      <point x="63" y="244"/>
      <point x="63" y="154" type="curve" smooth="yes"/>
      <point x="63" y="63"/>
      <point x="135" y="-8"/>
      <point x="225" y="-8" type="curve" smooth="yes"/>
      <point x="315" y="-8"/>
      <point x="389" y="63"/>
      <point x="389" y="154" type="curve" smooth="yes"/>
    </contour>
  </outline>
</glyph>
<glyph name="four" format="1">
  <advance width="975"/>
  <unicode hex="0034"/>
  <outline>
    <contour>
      <point x="383" y="0" type="line"/>
      <point x="668" y="0" type="line"/>
      <point x="757" y="422" type="line"/>
      <point x="883" y="446"/>
      <point x="977" y="535"/>
      <point x="977" y="644" type="curve" smooth="yes"/>
      <point x="977" y="680"/>
      <point x="967" y="717"/>
      <point x="944" y="756" type="curve"/>
      <point x="938" y="760" type="line"/>
      <point x="896" y="711"/>
      <point x="852" y="680"/>
      <point x="808" y="663" type="curve"/>
      <point x="909" y="1139" type="line"/>
      <point x="778" y="1139" type="line"/>
      <point x="612" y="661" type="line"/>
      <point x="541" y="674"/>
      <point x="462" y="691"/>
      <point x="399" y="691" type="curve" smooth="yes"/>
      <point x="334" y="691"/>
      <point x="262" y="672"/>
      <point x="217" y="654" type="curve"/>
      <point x="215" y="660" type="line"/>
      <point x="418" y="822"/>
      <point x="725" y="1144"/>
      <point x="725" y="1342" type="curve" smooth="yes"/>
      <point x="725" y="1441"/>
      <point x="657" y="1519"/>
      <point x="530" y="1519" type="curve" smooth="yes"/>
      <point x="498" y="1519"/>
      <point x="459" y="1515"/>
      <point x="428" y="1506" type="curve"/>
      <point x="438" y="1465"/>
      <point x="444" y="1422"/>
      <point x="444" y="1379" type="curve" smooth="yes"/>
      <point x="444" y="1109"/>
      <point x="225" y="818"/>
      <point x="-4" y="543" type="curve"/>
      <point x="-4" y="533" type="line"/>
      <point x="39" y="453" type="line"/>
      <point x="47" y="453" type="line"/>
      <point x="121" y="490"/>
      <point x="199" y="496"/>
      <point x="268" y="496" type="curve" smooth="yes"/>
      <point x="364" y="496"/>
      <point x="451" y="465"/>
      <point x="536" y="441" type="curve"/>
    </contour>
  </outline>
</glyph>
<glyph name="eight" format="1">
  <advance width="1022"/>
  <unicode hex="0038"/>
  <outline>
    <contour>
      <point x="0" y="140"/>
      <point x="192" y="-12"/>
      <point x="461" y="-12" type="curve" smooth="yes"/>
      <point x="762" y="-7"/>
      <point x="991" y="206"/>
      <point x="991" y="463" type="curve"/>
      <point x="987" y="652"/>
      <point x="855" y="778"/>
      <point x="728" y="896" type="curve"/>
      <point x="931" y="1007"/>
      <point x="1029" y="1129"/>
      <point x="1029" y="1266" type="curve"/>
      <point x="1025" y="1436"/>
      <point x="862" y="1550"/>
      <point x="642" y="1550" type="curve" smooth="yes"/>
      <point x="390" y="1550"/>
      <point x="201" y="1382"/>
      <point x="201" y="1175" type="curve" smooth="yes"/>
      <point x="201" y="1041"/>
      <point x="287" y="933"/>
      <point x="385" y="831" type="curve"/>
      <point x="113" y="712"/>
      <point x="-4" y="571"/>
      <point x="-4" y="378" type="curve" smooth="yes"/>
    </contour>
    <contour>
      <point x="687" y="246"/>
      <point x="591" y="129"/>
      <point x="461" y="129" type="curve" smooth="yes"/>
      <point x="347" y="129"/>
      <point x="266" y="227"/>
      <point x="266" y="380" type="curve" smooth="yes"/>
      <point x="266" y="527"/>
      <point x="339" y="659"/>
      <point x="469" y="748" type="curve"/>
      <point x="580" y="636"/>
      <point x="685" y="524"/>
      <point x="687" y="385" type="curve" smooth="yes"/>
    </contour>
    <contour>
      <point x="491" y="1365"/>
      <point x="566" y="1452"/>
      <point x="673" y="1452" type="curve" smooth="yes"/>
      <point x="757" y="1452"/>
      <point x="809" y="1393"/>
      <point x="809" y="1298" type="curve" smooth="yes"/>
      <point x="809" y="1191"/>
      <point x="745" y="1067"/>
      <point x="642" y="977" type="curve"/>
      <point x="558" y="1059"/>
      <point x="492" y="1143"/>
      <point x="491" y="1248" type="curve"/>
    </contour>
  </outline>
</glyph>
<glyph name="bracketleft" format="1">
  <advance width="819"/>
  <unicode hex="005B"/>
  <outline>
    <contour>
      <point x="446" y="-375" type="line"/>
      <point x="219" y="-375" type="line"/>
      <point x="602" y="1423" type="line"/>
      <point x="829" y="1423" type="line"/>
      <point x="852" y="1540" type="line"/>
      <point x="415" y="1540" type="line"/>
      <point x="-15" y="-492" type="line"/>
      <point x="422" y="-492" type="line"/>
    </contour>
  </outline>
</glyph>
<glyph name="backslash" format="1">
  <advance width="741"/>
  <unicode hex="005C"/>
  <outline>
    <contour>
      <point x="668" y="-512" type="line"/>
      <point x="233" y="1536" type="line"/>
      <point x="86" y="1536" type="line"/>
      <point x="520" y="-512" type="line"/>
    </contour>
  </outline>
</glyph>
<glyph name="bar" format="1">
  <advance width="1090"/>
  <unicode hex="007C"/>
  <outline>
    <contour>
      <point x="639" y="-512" type="line"/>
      <point x="639" y="1538" type="line"/>
      <point x="449" y="1538" type="line"/>
      <point x="449" y="-512" type="line"/>
    </contour>
  </outline>
</glyph>
<glyph name="threequarters" format="1">
  <advance width="1499"/>
  <unicode hex="00BE"/>
  <outline>
    <contour>
      <point x="1253" y="1540" type="line"/>
      <point x="1106" y="1540" type="line"/>
      <point x="254" y="0" type="line"/>
      <point x="401" y="0" type="line"/>
    </contour>
    <contour>
      <point x="274" y="1055"/>
      <point x="250" y="1073"/>
      <point x="211" y="1073" type="curve" smooth="yes"/>
      <point x="129" y="1073"/>
      <point x="71" y="1006"/>
      <point x="71" y="911" type="curve" smooth="yes"/>
      <point x="71" y="784"/>
      <point x="168" y="696"/>
      <point x="305" y="696" type="curve" smooth="yes"/>
      <point x="475" y="696"/>
      <point x="622" y="825"/>
      <point x="622" y="973" type="curve" smooth="yes"/>
      <point x="622" y="1073"/>
      <point x="555" y="1149"/>
      <point x="448" y="1171" type="curve"/>
      <point x="448" y="1180" type="line"/>
      <point x="563" y="1212"/>
      <point x="637" y="1288"/>
      <point x="637" y="1380" type="curve" smooth="yes"/>
      <point x="637" y="1485"/>
      <point x="544" y="1563"/>
      <point x="415" y="1563" type="curve" smooth="yes"/>
      <point x="282" y="1563"/>
      <point x="172" y="1479"/>
      <point x="172" y="1378" type="curve" smooth="yes"/>
      <point x="172" y="1317"/>
      <point x="213" y="1276"/>
      <point x="272" y="1276" type="curve" smooth="yes"/>
      <point x="301" y="1276"/>
      <point x="329" y="1290"/>
      <point x="360" y="1315" type="curve"/>
      <point x="358" y="1321" type="line"/>
      <point x="327" y="1335"/>
      <point x="311" y="1366"/>
      <point x="311" y="1409" type="curve" smooth="yes"/>
      <point x="311" y="1462"/>
      <point x="344" y="1503"/>
      <point x="391" y="1503" type="curve" smooth="yes"/>
      <point x="440" y="1503"/>
      <point x="471" y="1460"/>
      <point x="471" y="1393" type="curve" smooth="yes"/>
      <point x="471" y="1294"/>
      <point x="399" y="1212"/>
      <point x="288" y="1178" type="curve"/>
      <point x="288" y="1169" type="line"/>
      <point x="377" y="1157"/>
      <point x="428" y="1083"/>
      <point x="428" y="969" type="curve" smooth="yes"/>
      <point x="428" y="854"/>
      <point x="372" y="774"/>
      <point x="295" y="774" type="curve" smooth="yes"/>
      <point x="243" y="774"/>
      <point x="207" y="819"/>
      <point x="207" y="883" type="curve" smooth="yes"/>
      <point x="207" y="944"/>
      <point x="239" y="989"/>
      <point x="295" y="1004" type="curve"/>
    </contour>
    <contour>
      <point x="1135" y="303" type="line"/>
      <point x="1069" y="0" type="line"/>
      <point x="1247" y="0" type="line"/>
      <point x="1311" y="303" type="line"/>
      <point x="1384" y="303" type="line"/>
      <point x="1407" y="393" type="line"/>
      <point x="1329" y="393" type="line"/>
      <point x="1427" y="846" type="line"/>
      <point x="1245" y="823" type="line"/>
      <point x="1153" y="393" type="line"/>
      <point x="975" y="393" type="line"/>
      <point x="973" y="399" type="line"/>
      <point x="1077" y="506"/>
      <point x="1149" y="639"/>
      <point x="1149" y="735" type="curve" smooth="yes"/>
      <point x="1149" y="811"/>
      <point x="1110" y="858"/>
      <point x="1042" y="858" type="curve" smooth="yes"/>
      <point x="1020" y="858"/>
      <point x="993" y="856"/>
      <point x="971" y="852" type="curve"/>
      <point x="979" y="819"/>
      <point x="987" y="786"/>
      <point x="987" y="745" type="curve" smooth="yes"/>
      <point x="987" y="623"/>
      <point x="938" y="489"/>
      <point x="829" y="311" type="curve"/>
      <point x="831" y="303" type="line"/>
    </contour>
  </outline>
</glyph>
<glyph name="iogonek" format="1">
  <advance width="547"/>
  <unicode hex="012F"/>
  <outline>
    <contour>
      <point x="547" y="367" type="line"/>
      <point x="516" y="262"/>
      <point x="442" y="186"/>
      <point x="362" y="186" type="curve" smooth="yes"/>
      <point x="305" y="186"/>
      <point x="279" y="205"/>
      <point x="279" y="262" type="curve" smooth="yes"/>
      <point x="279" y="283"/>
      <point x="281" y="305"/>
      <point x="287" y="328" type="curve"/>
      <point x="434" y="1024" type="line"/>
      <point x="139" y="1024" type="line"/>
      <point x="0" y="367" type="line" smooth="yes"/>
      <point x="-10" y="315"/>
      <point x="-16" y="270"/>
      <point x="-16" y="233" type="curve" smooth="yes"/>
      <point x="-16" y="121"/>
      <point x="24" y="51"/>
      <point x="86" y="16" type="curve"/>
      <point x="-29" y="-59"/>
      <point x="-89" y="-146"/>
      <point x="-89" y="-248" type="curve" smooth="yes"/>
      <point x="-89" y="-358"/>
      <point x="-3" y="-438"/>
      <point x="114" y="-438" type="curve" smooth="yes"/>
      <point x="218" y="-438"/>
      <point x="333" y="-367"/>
      <point x="376" y="-272" type="curve"/>
      <point x="341" y="-225" type="line"/>
      <point x="296" y="-276"/>
      <point x="245" y="-305"/>
      <point x="194" y="-305" type="curve" smooth="yes"/>
      <point x="126" y="-305"/>
      <point x="81" y="-256"/>
      <point x="81" y="-180" type="curve" smooth="yes"/>
      <point x="81" y="-111"/>
      <point x="110" y="-49"/>
      <point x="157" y="-8" type="curve"/>
      <point x="172" y="-11"/>
      <point x="187" y="-12"/>
      <point x="203" y="-12" type="curve" smooth="yes"/>
      <point x="311" y="-12"/>
      <point x="518" y="33"/>
      <point x="633" y="367" type="curve"/>
    </contour>
    <contour>
      <point x="506" y="1386"/>
      <point x="432" y="1460"/>
      <point x="342" y="1460" type="curve" smooth="yes"/>
      <point x="252" y="1460"/>
      <point x="180" y="1386"/>
      <point x="180" y="1296" type="curve" smooth="yes"/>
      <point x="180" y="1206"/>
      <point x="252" y="1135"/>
      <point x="342" y="1135" type="curve" smooth="yes"/>
      <point x="432" y="1135"/>
      <point x="506" y="1206"/>
      <point x="506" y="1296" type="curve" smooth="yes"/>
    </contour>
  </outline>
</glyph>
<glyph name="oslashacute" format="1">
  <advance width="877"/>
  <unicode hex="01FF"/>
  <outline>
    <contour>
      <point x="966" y="1024" type="line"/>
      <point x="851" y="1024" type="line"/>
      <point x="756" y="914" type="line"/>
      <point x="715" y="996"/>
      <point x="643" y="1034"/>
      <point x="535" y="1034" type="curve" smooth="yes"/>
      <point x="228" y="1034"/>
      <point x="-26" y="723"/>
      <point x="-26" y="350" type="curve" smooth="yes"/>
      <point x="-26" y="237"/>
      <point x="-2" y="150"/>
      <point x="44" y="89" type="curve"/>
      <point x="-139" y="-123" type="line"/>
      <point x="-24" y="-123" type="line"/>
      <point x="108" y="29" type="line"/>
      <point x="152" y="2"/>
      <point x="206" y="-12"/>
      <point x="271" y="-12" type="curve" smooth="yes"/>
      <point x="568" y="-12"/>
      <point x="797" y="293"/>
      <point x="797" y="690" type="curve" smooth="yes"/>
      <point x="797" y="737"/>
      <point x="793" y="779"/>
      <point x="787" y="816" type="curve"/>
    </contour>
    <contour>
      <point x="601" y="922"/>
      <point x="630" y="866"/>
      <point x="632" y="770" type="curve"/>
      <point x="279" y="362" type="line"/>
      <point x="287" y="625"/>
      <point x="430" y="922"/>
      <point x="554" y="922" type="curve" smooth="yes"/>
    </contour>
    <contour>
      <point x="642" y="1149" type="line"/>
      <point x="890" y="1536" type="line"/>
      <point x="675" y="1536" type="line"/>
      <point x="489" y="1149" type="line"/>
    </contour>
    <contour>
      <point x="324" y="180"/>
      <point x="302" y="199"/>
      <point x="290" y="240" type="curve"/>
      <point x="622" y="625" type="line"/>
      <point x="588" y="389"/>
      <point x="471" y="180"/>
      <point x="359" y="180" type="curve" smooth="yes"/>
    </contour>
  </outline>
</glyph>
<glyph name="acutecomb" format="1">
  <advance width="647"/>
  <unicode hex="0301"/>
  <outline>
    <contour>
      <point x="246" y="1149" type="line"/>
      <point x="358" y="1149" type="line"/>
      <point x="647" y="1536" type="line"/>
      <point x="432" y="1536" type="line"/>
    </contour>
  </outline>
</glyph>
<glyph name="choChing-thai" format="1">
  <advance width="1082"/>
  <unicode hex="0E09"/>
  <outline>
    <contour>
      <point x="1081" y="303" type="line"/>
      <point x="1065" y="231"/>
      <point x="1028" y="172"/>
      <point x="969" y="172" type="curve" smooth="yes"/>
      <point x="915" y="172"/>
      <point x="893" y="190"/>
      <point x="893" y="248" type="curve" smooth="yes"/>
      <point x="893" y="266"/>
      <point x="895" y="287"/>
      <point x="901" y="313" type="curve" smooth="yes"/>
      <point x="993" y="743" type="line" smooth="yes"/>
      <point x="1001" y="782"/>
      <point x="1006" y="817"/>
      <point x="1006" y="852" type="curve" smooth="yes"/>
      <point x="1006" y="1075"/>
      <point x="831" y="1188"/>
      <point x="580" y="1188" type="curve" smooth="yes"/>
      <point x="283" y="1188"/>
      <point x="70" y="1087"/>
      <point x="70" y="885" type="curve" smooth="yes"/>
      <point x="70" y="741"/>
      <point x="158" y="698"/>
      <point x="291" y="698" type="curve"/>
      <point x="276" y="727"/>
      <point x="266" y="770"/>
      <point x="266" y="825" type="curve" smooth="yes"/>
      <point x="266" y="985"/>
      <point x="375" y="1092"/>
      <point x="530" y="1092" type="curve" smooth="yes"/>
      <point x="647" y="1092"/>
      <point x="719" y="1040"/>
      <point x="719" y="901" type="curve" smooth="yes"/>
      <point x="719" y="862"/>
      <point x="713" y="817"/>
      <point x="702" y="764" type="curve" smooth="yes"/>
      <point x="614" y="352" type="line" smooth="yes"/>
      <point x="592" y="248"/>
      <point x="514" y="172"/>
      <point x="434" y="172" type="curve" smooth="yes"/>
      <point x="379" y="172"/>
      <point x="352" y="201"/>
      <point x="352" y="254" type="curve" smooth="yes"/>
      <point x="352" y="270"/>
      <point x="355" y="291"/>
      <point x="360" y="313" type="curve" smooth="yes"/>
      <point x="422" y="604" type="line"/>
      <point x="127" y="604" type="line"/>
      <point x="74" y="352" type="line" smooth="yes"/>
      <point x="66" y="311"/>
      <point x="59" y="268"/>
      <point x="59" y="227" type="curve" smooth="yes"/>
      <point x="59" y="90"/>
      <point x="119" y="-27"/>
      <point x="295" y="-27" type="curve" smooth="yes"/>
      <point x="381" y="-27"/>
      <point x="508" y="0"/>
      <point x="614" y="170" type="curve"/>
      <point x="625" y="43"/>
      <point x="700" y="-27"/>
      <point x="817" y="-27" type="curve" smooth="yes"/>
      <point x="938" y="-27"/>
      <point x="1094" y="6"/>
      <point x="1167" y="303" type="curve"/>
    </contour>
    <contour>
      <point x="1035" y="1178" type="move" name="top"/>
    </contour>
  </outline>
</glyph>
<glyph name="choChoe-thai" format="1">
  <advance width="1590"/>
  <unicode hex="0E0C"/>
  <outline>
    <contour>
      <point x="1620" y="1178" type="line"/>
      <point x="1325" y="1178" type="line"/>
      <point x="1141" y="299" type="line" smooth="yes"/>
      <point x="1121" y="205"/>
      <point x="1094" y="172"/>
      <point x="1014" y="172" type="curve" smooth="yes"/>
      <point x="951" y="172"/>
      <point x="897" y="233"/>
      <point x="897" y="314" type="curve" smooth="yes"/>
      <point x="897" y="326"/>
      <point x="898" y="339"/>
      <point x="901" y="352" type="curve" smooth="yes"/>
      <point x="996" y="803" type="line" smooth="yes"/>
      <point x="1006" y="853"/>
      <point x="1013" y="899"/>
      <point x="1013" y="941" type="curve" smooth="yes"/>
      <point x="1013" y="1091"/>
      <point x="932" y="1188"/>
      <point x="654" y="1188" type="curve" smooth="yes"/>
      <point x="465" y="1188"/>
      <point x="307" y="1130"/>
      <point x="158" y="1042" type="curve"/>
      <point x="154" y="1024" type="line"/>
      <point x="169" y="992"/>
      <point x="177" y="952"/>
      <point x="177" y="910" type="curve" smooth="yes"/>
      <point x="177" y="888"/>
      <point x="175" y="866"/>
      <point x="170" y="844" type="curve" smooth="yes"/>
      <point x="51" y="285" type="line" smooth="yes"/>
      <point x="44" y="251"/>
      <point x="40" y="219"/>
      <point x="40" y="190" type="curve" smooth="yes"/>
      <point x="40" y="49"/>
      <point x="124" y="-27"/>
      <point x="271" y="-27" type="curve" smooth="yes"/>
      <point x="365" y="-27"/>
      <point x="430" y="-12"/>
      <point x="473" y="4" type="curve"/>
      <point x="498" y="118" type="line"/>
      <point x="476" y="108"/>
      <point x="437" y="98"/>
      <point x="396" y="98" type="curve" smooth="yes"/>
      <point x="348" y="98"/>
      <point x="328" y="121"/>
      <point x="328" y="166" type="curve" smooth="yes"/>
      <point x="328" y="183"/>
      <point x="331" y="202"/>
      <point x="336" y="225" type="curve" smooth="yes"/>
      <point x="459" y="811" type="line" smooth="yes"/>
      <point x="464" y="836"/>
      <point x="467" y="861"/>
      <point x="467" y="884" type="curve" smooth="yes"/>
      <point x="467" y="944"/>
      <point x="450" y="996"/>
      <point x="420" y="1040" type="curve"/>
      <point x="424" y="1059" type="line"/>
      <point x="475" y="1077"/>
      <point x="531" y="1092"/>
      <point x="613" y="1092" type="curve" smooth="yes"/>
      <point x="689" y="1092"/>
      <point x="727" y="1052"/>
      <point x="727" y="968" type="curve" smooth="yes"/>
      <point x="727" y="943"/>
      <point x="724" y="914"/>
      <point x="717" y="881" type="curve" smooth="yes"/>
      <point x="533" y="0" type="line"/>
      <point x="828" y="0" type="line"/>
      <point x="862" y="170" type="line"/>
      <point x="914" y="31"/>
      <point x="1022" y="-27"/>
      <point x="1133" y="-27" type="curve" smooth="yes"/>
      <point x="1311" y="-27"/>
      <point x="1391" y="92"/>
      <point x="1438" y="313" type="curve" smooth="yes"/>
    </contour>
  </outline>
</glyph>
<glyph name="thoThan-thai" format="1">
  <advance width="1146"/>
  <unicode hex="0E10"/>
  <outline>
    <contour>
      <point x="254" y="342" type="line" smooth="yes"/>
      <point x="242" y="285"/>
      <point x="235" y="236"/>
      <point x="235" y="193" type="curve" smooth="yes"/>
      <point x="235" y="43"/>
      <point x="311" y="-27"/>
      <point x="481" y="-27" type="curve" smooth="yes"/>
      <point x="813" y="-27"/>
      <point x="1095" y="276"/>
      <point x="1095" y="795" type="curve" smooth="yes"/>
      <point x="1095" y="1067"/>
      <point x="940" y="1188"/>
      <point x="602" y="1188" type="curve" smooth="yes"/>
      <point x="325" y="1188"/>
      <point x="24" y="1073"/>
      <point x="24" y="780" type="curve" smooth="yes"/>
      <point x="24" y="637"/>
      <point x="112" y="582"/>
      <point x="245" y="582" type="curve"/>
      <point x="231" y="610"/>
      <point x="221" y="666"/>
      <point x="221" y="721" type="curve" smooth="yes"/>
      <point x="221" y="985"/>
      <point x="411" y="1092"/>
      <point x="567" y="1092" type="curve" smooth="yes"/>
      <point x="714" y="1092"/>
      <point x="790" y="1024"/>
      <point x="790" y="815" type="curve" smooth="yes"/>
      <point x="790" y="477"/>
      <point x="676" y="131"/>
      <point x="532" y="131" type="curve" smooth="yes"/>
      <point x="522" y="131"/>
      <point x="516" y="141"/>
      <point x="516" y="164" type="curve" smooth="yes"/>
      <point x="516" y="180"/>
      <point x="520" y="205"/>
      <point x="526" y="233" type="curve" smooth="yes"/>
      <point x="630" y="727" type="line"/>
      <point x="336" y="727" type="line"/>
    </contour>
    <contour>
      <point x="772" y="115" type="line"/>
      <point x="815" y="92"/>
      <point x="834" y="40"/>
      <point x="834" y="9" type="curve" smooth="yes"/>
      <point x="834" y="-162"/>
      <point x="622" y="-269"/>
      <point x="401" y="-269" type="curve" smooth="yes"/>
      <point x="310" y="-269"/>
      <point x="214" y="-247"/>
      <point x="129" y="-196" type="curve"/>
      <point x="129" y="-411"/>
      <point x="261" y="-487"/>
      <point x="442" y="-487" type="curve" smooth="yes"/>
      <point x="732" y="-487"/>
      <point x="971" y="-284"/>
      <point x="971" y="-6" type="curve" smooth="yes"/>
      <point x="971" y="87"/>
      <point x="922" y="140"/>
      <point x="863" y="168" type="curve"/>
    </contour>
    <contour>
      <point x="876" y="1048" type="line"/>
      <point x="966" y="1124"/>
      <point x="1049" y="1151"/>
      <point x="1157" y="1151" type="curve" smooth="yes"/>
      <point x="1216" y="1151"/>
      <point x="1276" y="1136"/>
      <point x="1324" y="1113" type="curve"/>
      <point x="1324" y="1261"/>
      <point x="1251" y="1330"/>
      <point x="1124" y="1330" type="curve" smooth="yes"/>
      <point x="963" y="1330"/>
      <point x="866" y="1224"/>
      <point x="811" y="1102" type="curve"/>
    </contour>
  </outline>
</glyph>
<glyph name="thoPhuthao-thai" format="1">
  <advance width="1681"/>
  <unicode hex="0E12"/>
  <outline>
    <contour>
      <point x="1711" y="1178" type="line"/>
      <point x="1416" y="1178" type="line"/>
      <point x="1232" y="299" type="line" smooth="yes"/>
      <point x="1212" y="205"/>
      <point x="1185" y="172"/>
      <point x="1105" y="172" type="curve" smooth="yes"/>
      <point x="1044" y="172"/>
      <point x="989" y="238"/>
      <point x="989" y="318" type="curve" smooth="yes"/>
      <point x="989" y="330"/>
      <point x="990" y="342"/>
      <point x="993" y="354" type="curve"/>
      <point x="1098" y="852" type="line" smooth="yes"/>
      <point x="1107" y="896"/>
      <point x="1112" y="935"/>
      <point x="1112" y="969" type="curve" smooth="yes"/>
      <point x="1112" y="1133"/>
      <point x="1012" y="1188"/>
      <point x="895" y="1188" type="curve" smooth="yes"/>
      <point x="778" y="1188"/>
      <point x="699" y="1116"/>
      <point x="671" y="1036" type="curve"/>
      <point x="666" y="1108"/>
      <point x="650" y="1188"/>
      <point x="550" y="1188" type="curve" smooth="yes"/>
      <point x="183" y="1188"/>
      <point x="15" y="649"/>
      <point x="15" y="331" type="curve" smooth="yes"/>
      <point x="15" y="99"/>
      <point x="156" y="-27"/>
      <point x="332" y="-27" type="curve" smooth="yes"/>
      <point x="410" y="-27"/>
      <point x="471" y="-12"/>
      <point x="512" y="4" type="curve"/>
      <point x="537" y="119" type="line"/>
      <point x="512" y="107"/>
      <point x="467" y="98"/>
      <point x="428" y="98" type="curve" smooth="yes"/>
      <point x="351" y="98"/>
      <point x="321" y="196"/>
      <point x="321" y="306" type="curve" smooth="yes"/>
      <point x="321" y="617"/>
      <point x="441" y="1063"/>
      <point x="566" y="1063" type="curve" smooth="yes"/>
      <point x="602" y="1063"/>
      <point x="610" y="1009"/>
      <point x="610" y="955" type="curve" smooth="yes"/>
      <point x="610" y="923"/>
      <point x="607" y="891"/>
      <point x="605" y="870" type="curve"/>
      <point x="677" y="870" type="line"/>
      <point x="691" y="936"/>
      <point x="743" y="1063"/>
      <point x="791" y="1063" type="curve" smooth="yes"/>
      <point x="819" y="1063"/>
      <point x="831" y="1049"/>
      <point x="831" y="1014" type="curve" smooth="yes"/>
      <point x="831" y="993"/>
      <point x="827" y="965"/>
      <point x="819" y="928" type="curve" smooth="yes"/>
      <point x="623" y="0" type="line"/>
      <point x="918" y="0" type="line"/>
      <point x="953" y="168" type="line"/>
      <point x="1004" y="30"/>
      <point x="1113" y="-27"/>
      <point x="1223" y="-27" type="curve" smooth="yes"/>
      <point x="1402" y="-27"/>
      <point x="1482" y="92"/>
      <point x="1529" y="313" type="curve" smooth="yes"/>
    </contour>
  </outline>
</glyph>
<glyph name="thoThahan-thai" format="1">
  <advance width="1061"/>
  <unicode hex="0E17"/>
  <outline>
    <contour>
      <point x="1043" y="872" type="line" smooth="yes"/>
      <point x="1048" y="898"/>
      <point x="1051" y="922"/>
      <point x="1051" y="945" type="curve" smooth="yes"/>
      <point x="1051" y="1114"/>
      <point x="898" y="1188"/>
      <point x="765" y="1188" type="curve" smooth="yes"/>
      <point x="616" y="1188"/>
      <point x="511" y="1077"/>
      <point x="467" y="991" type="curve"/>
      <point x="511" y="1178" type="line"/>
      <point x="251" y="1178" type="line"/>
      <point x="0" y="0" type="line"/>
      <point x="295" y="0" type="line"/>
      <point x="467" y="809" type="line" smooth="yes"/>
      <point x="490" y="916"/>
      <point x="580" y="1010"/>
      <point x="655" y="1010" type="curve" smooth="yes"/>
      <point x="696" y="1010"/>
      <point x="752" y="997"/>
      <point x="752" y="918" type="curve" smooth="yes"/>
      <point x="752" y="900"/>
      <point x="749" y="878"/>
      <point x="744" y="852" type="curve" smooth="yes"/>
      <point x="568" y="0" type="line"/>
      <point x="859" y="0" type="line"/>
    </contour>
  </outline>
</glyph>
<glyph name="thoThong-thai" format="1">
  <advance width="957"/>
  <unicode hex="0E18"/>
  <outline>
    <contour>
      <point x="359" y="553" type="line"/>
      <point x="64" y="553" type="line"/>
      <point x="28" y="385" type="line" smooth="yes"/>
      <point x="16" y="330"/>
      <point x="9" y="281"/>
      <point x="9" y="238" type="curve" smooth="yes"/>
      <point x="9" y="55"/>
      <point x="162" y="-27"/>
      <point x="352" y="-27" type="curve" smooth="yes"/>
      <point x="655" y="-27"/>
      <point x="885" y="84"/>
      <point x="885" y="420" type="curve" smooth="yes"/>
      <point x="885" y="762"/>
      <point x="421" y="741"/>
      <point x="421" y="965" type="curve" smooth="yes"/>
      <point x="421" y="1065"/>
      <point x="513" y="1092"/>
      <point x="599" y="1092" type="curve" smooth="yes"/>
      <point x="672" y="1092"/>
      <point x="760" y="1059"/>
      <point x="760" y="991" type="curve" smooth="yes"/>
      <point x="760" y="930"/>
      <point x="732" y="881"/>
      <point x="689" y="854" type="curve"/>
      <point x="713" y="831"/>
      <point x="775" y="821"/>
      <point x="809" y="821" type="curve" smooth="yes"/>
      <point x="895" y="821"/>
      <point x="945" y="885"/>
      <point x="945" y="971" type="curve" smooth="yes"/>
      <point x="945" y="1124"/>
      <point x="736" y="1188"/>
      <point x="545" y="1188" type="curve" smooth="yes"/>
      <point x="336" y="1188"/>
      <point x="128" y="1100"/>
      <point x="128" y="913" type="curve" smooth="yes"/>
      <point x="128" y="633"/>
      <point x="570" y="629"/>
      <point x="570" y="375" type="curve" smooth="yes"/>
      <point x="570" y="209"/>
      <point x="490" y="98"/>
      <point x="406" y="98" type="curve" smooth="yes"/>
      <point x="345" y="98"/>
      <point x="287" y="129"/>
      <point x="287" y="186" type="curve" smooth="yes"/>
      <point x="287" y="203"/>
      <point x="289" y="221"/>
      <point x="293" y="241" type="curve" smooth="yes"/>
    </contour>
  </outline>
</glyph>
<glyph name="phoPhan-thai" format="1">
  <advance width="1235"/>
  <unicode hex="0E1E"/>
  <outline>
    <contour>
      <point x="1348" y="1178" type="line"/>
      <point x="1212" y="1178" type="line"/>
      <point x="965" y="342" type="line"/>
      <point x="993" y="1096" type="line"/>
      <point x="635" y="1096" type="line"/>
      <point x="389" y="344" type="line"/>
      <point x="375" y="1178" type="line"/>
      <point x="80" y="1178" type="line"/>
      <point x="109" y="0" type="line"/>
      <point x="393" y="0" type="line"/>
      <point x="705" y="961" type="line"/>
      <point x="684" y="0" type="line"/>
      <point x="969" y="0" type="line"/>
    </contour>
  </outline>
</glyph>
<glyph name="phoSamphao-thai" format="1">
  <advance width="1075"/>
  <unicode hex="0E20"/>
  <outline>
    <contour>
      <point x="1049" y="803" type="line" smooth="yes"/>
      <point x="1059" y="850"/>
      <point x="1065" y="894"/>
      <point x="1065" y="934" type="curve" smooth="yes"/>
      <point x="1065" y="1087"/>
      <point x="979" y="1188"/>
      <point x="688" y="1188" type="curve" smooth="yes"/>
      <point x="500" y="1188"/>
      <point x="324" y="1130"/>
      <point x="174" y="1042" type="curve"/>
      <point x="170" y="1024" type="line"/>
      <point x="205" y="986"/>
      <point x="226" y="933"/>
      <point x="226" y="870" type="curve" smooth="yes"/>
      <point x="226" y="849"/>
      <point x="224" y="828"/>
      <point x="219" y="805" type="curve" smooth="yes"/>
      <point x="97" y="225" type="line" smooth="yes"/>
      <point x="78" y="133"/>
      <point x="64" y="98"/>
      <point x="4" y="98" type="curve" smooth="yes"/>
      <point x="-16" y="98"/>
      <point x="-51" y="106"/>
      <point x="-67" y="118" type="curve"/>
      <point x="-90" y="12" type="line"/>
      <point x="-47" y="-12"/>
      <point x="20" y="-27"/>
      <point x="109" y="-27" type="curve" smooth="yes"/>
      <point x="297" y="-27"/>
      <point x="360" y="82"/>
      <point x="403" y="283" type="curve" smooth="yes"/>
      <point x="508" y="772" type="line" smooth="yes"/>
      <point x="512" y="793"/>
      <point x="515" y="815"/>
      <point x="515" y="837" type="curve" smooth="yes"/>
      <point x="515" y="912"/>
      <point x="489" y="988"/>
      <point x="436" y="1040" type="curve"/>
      <point x="440" y="1059" type="line"/>
      <point x="492" y="1077"/>
      <point x="561" y="1092"/>
      <point x="643" y="1092" type="curve" smooth="yes"/>
      <point x="734" y="1092"/>
      <point x="780" y="1051"/>
      <point x="780" y="962" type="curve" smooth="yes"/>
      <point x="780" y="938"/>
      <point x="776" y="911"/>
      <point x="770" y="881" type="curve" smooth="yes"/>
      <point x="584" y="0" type="line"/>
      <point x="879" y="0" type="line"/>
    </contour>
  </outline>
</glyph>
<glyph name="loLing-thai" format="1">
  <advance width="1055"/>
  <unicode hex="0E25"/>
  <outline>
    <contour>
      <point x="842" y="0" type="line"/>
      <point x="1018" y="836" type="line" smooth="yes"/>
      <point x="1022" y="856"/>
      <point x="1025" y="879"/>
      <point x="1025" y="901" type="curve" smooth="yes"/>
      <point x="1025" y="1044"/>
      <point x="918" y="1188"/>
      <point x="607" y="1188" type="curve" smooth="yes"/>
      <point x="388" y="1188"/>
      <point x="162" y="1102"/>
      <point x="162" y="936" type="curve" smooth="yes"/>
      <point x="162" y="854"/>
      <point x="211" y="782"/>
      <point x="308" y="782" type="curve" smooth="yes"/>
      <point x="367" y="782"/>
      <point x="402" y="805"/>
      <point x="429" y="838" type="curve"/>
      <point x="392" y="868"/>
      <point x="371" y="897"/>
      <point x="371" y="948" type="curve" smooth="yes"/>
      <point x="371" y="1040"/>
      <point x="474" y="1092"/>
      <point x="576" y="1092" type="curve" smooth="yes"/>
      <point x="689" y="1092"/>
      <point x="744" y="1047"/>
      <point x="744" y="956" type="curve" smooth="yes"/>
      <point x="744" y="936"/>
      <point x="741" y="915"/>
      <point x="736" y="891" type="curve" smooth="yes"/>
      <point x="688" y="665" type="line"/>
      <point x="633" y="676"/>
      <point x="578" y="681"/>
      <point x="524" y="681" type="curve" smooth="yes"/>
      <point x="252" y="681"/>
      <point x="15" y="542"/>
      <point x="15" y="242" type="curve" smooth="yes"/>
      <point x="15" y="37"/>
      <point x="197" y="-27"/>
      <point x="295" y="-27" type="curve" smooth="yes"/>
      <point x="410" y="-27"/>
      <point x="420" y="-14"/>
      <point x="461" y="4" type="curve"/>
      <point x="484" y="119" type="line"/>
      <point x="459" y="106"/>
      <point x="427" y="98"/>
      <point x="394" y="98" type="curve" smooth="yes"/>
      <point x="336" y="98"/>
      <point x="295" y="170"/>
      <point x="295" y="262" type="curve" smooth="yes"/>
      <point x="295" y="471"/>
      <point x="414" y="585"/>
      <point x="562" y="585" type="curve" smooth="yes"/>
      <point x="596" y="585"/>
      <point x="631" y="582"/>
      <point x="667" y="571" type="curve"/>
      <point x="547" y="0" type="line"/>
    </contour>
  </outline>
</glyph>
<glyph name="woWaen-thai" format="1">
  <advance width="993"/>
  <unicode hex="0E27"/>
  <outline>
    <contour>
      <point x="292" y="295"/>
      <point x="265" y="303"/>
      <point x="242" y="303" type="curve" smooth="yes"/>
      <point x="157" y="303"/>
      <point x="122" y="229"/>
      <point x="122" y="160" type="curve" smooth="yes"/>
      <point x="122" y="69"/>
      <point x="189" y="-27"/>
      <point x="364" y="-27" type="curve" smooth="yes"/>
      <point x="786" y="-27"/>
      <point x="951" y="440"/>
      <point x="951" y="794" type="curve" smooth="yes"/>
      <point x="951" y="1052"/>
      <point x="821" y="1188"/>
      <point x="572" y="1188" type="curve" smooth="yes"/>
      <point x="296" y="1188"/>
      <point x="81" y="1054"/>
      <point x="81" y="776" type="curve" smooth="yes"/>
      <point x="81" y="643"/>
      <point x="186" y="585"/>
      <point x="316" y="585" type="curve"/>
      <point x="293" y="620"/>
      <point x="282" y="674"/>
      <point x="282" y="734" type="curve" smooth="yes"/>
      <point x="282" y="892"/>
      <point x="362" y="1092"/>
      <point x="511" y="1092" type="curve" smooth="yes"/>
      <point x="605" y="1092"/>
      <point x="656" y="1023"/>
      <point x="656" y="810" type="curve" smooth="yes"/>
      <point x="656" y="448"/>
      <point x="543" y="99"/>
      <point x="358" y="99" type="curve" smooth="yes"/>
      <point x="308" y="99"/>
      <point x="279" y="136"/>
      <point x="279" y="179" type="curve" smooth="yes"/>
      <point x="279" y="215"/>
      <point x="291" y="245"/>
      <point x="313" y="274" type="curve"/>
    </contour>
  </outline>
</glyph>
<glyph name="soSua-thai" format="1">
  <advance width="1038"/>
  <unicode hex="0E2A"/>
  <outline>
    <contour>
      <point x="842" y="0" type="line"/>
      <point x="1018" y="836" type="line" smooth="yes"/>
      <point x="1022" y="856"/>
      <point x="1025" y="879"/>
      <point x="1025" y="901" type="curve" smooth="yes"/>
      <point x="1025" y="1044"/>
      <point x="918" y="1188"/>
      <point x="607" y="1188" type="curve" smooth="yes"/>
      <point x="388" y="1188"/>
      <point x="162" y="1102"/>
      <point x="162" y="936" type="curve" smooth="yes"/>
      <point x="162" y="854"/>
      <point x="211" y="782"/>
      <point x="308" y="782" type="curve" smooth="yes"/>
      <point x="367" y="782"/>
      <point x="402" y="805"/>
      <point x="429" y="838" type="curve"/>
      <point x="392" y="868"/>
      <point x="371" y="897"/>
      <point x="371" y="948" type="curve" smooth="yes"/>
      <point x="371" y="1040"/>
      <point x="474" y="1092"/>
      <point x="576" y="1092" type="curve" smooth="yes"/>
      <point x="689" y="1092"/>
      <point x="744" y="1047"/>
      <point x="744" y="956" type="curve" smooth="yes"/>
      <point x="744" y="936"/>
      <point x="741" y="915"/>
      <point x="736" y="891" type="curve" smooth="yes"/>
      <point x="688" y="665" type="line"/>
      <point x="633" y="676"/>
      <point x="578" y="681"/>
      <point x="524" y="681" type="curve" smooth="yes"/>
      <point x="252" y="681"/>
      <point x="15" y="542"/>
      <point x="15" y="242" type="curve" smooth="yes"/>
      <point x="15" y="37"/>
      <point x="197" y="-27"/>
      <point x="295" y="-27" type="curve" smooth="yes"/>
      <point x="410" y="-27"/>
      <point x="420" y="-14"/>
      <point x="461" y="4" type="curve"/>
      <point x="484" y="119" type="line"/>
      <point x="459" y="106"/>
      <point x="427" y="98"/>
      <point x="394" y="98" type="curve" smooth="yes"/>
      <point x="336" y="98"/>
      <point x="295" y="170"/>
      <point x="295" y="262" type="curve" smooth="yes"/>
      <point x="295" y="471"/>
      <point x="414" y="585"/>
      <point x="562" y="585" type="curve" smooth="yes"/>
      <point x="596" y="585"/>
      <point x="631" y="582"/>
      <point x="667" y="571" type="curve"/>
      <point x="547" y="0" type="line"/>
    </contour>
    <contour>
      <point x="768" y="1048" type="line"/>
      <point x="858" y="1124"/>
      <point x="941" y="1151"/>
      <point x="1049" y="1151" type="curve" smooth="yes"/>
      <point x="1108" y="1151"/>
      <point x="1168" y="1136"/>
      <point x="1216" y="1113" type="curve"/>
      <point x="1216" y="1261"/>
      <point x="1143" y="1330"/>
      <point x="1016" y="1330" type="curve" smooth="yes"/>
      <point x="855" y="1330"/>
      <point x="758" y="1224"/>
      <point x="703" y="1102" type="curve"/>
    </contour>
  </outline>
</glyph>
<glyph name="hoHip-thai" format="1">
  <advance width="1040"/>
  <unicode hex="0E2B"/>
  <outline>
    <contour>
      <point x="293" y="0" type="line"/>
      <point x="442" y="695" type="line"/>
      <point x="465" y="703"/>
      <point x="542" y="709"/>
      <point x="569" y="709" type="curve" smooth="yes"/>
      <point x="653" y="709"/>
      <point x="692" y="664"/>
      <point x="692" y="589" type="curve" smooth="yes"/>
      <point x="692" y="447"/>
      <point x="593" y="224"/>
      <point x="593" y="98" type="curve" smooth="yes"/>
      <point x="593" y="39"/>
      <point x="627" y="-27"/>
      <point x="749" y="-27" type="curve" smooth="yes"/>
      <point x="793" y="-27"/>
      <point x="864" y="-18"/>
      <point x="944" y="5" type="curve"/>
      <point x="899" y="21"/>
      <point x="871" y="71"/>
      <point x="871" y="128" type="curve" smooth="yes"/>
      <point x="871" y="247"/>
      <point x="962" y="445"/>
      <point x="962" y="600" type="curve" smooth="yes"/>
      <point x="962" y="693"/>
      <point x="914" y="771"/>
      <point x="790" y="791" type="curve"/>
      <point x="1123" y="1178" type="line"/>
      <point x="798" y="1178" type="line"/>
      <point x="573" y="803" type="line"/>
      <point x="463" y="795" type="line"/>
      <point x="544" y="1178" type="line"/>
      <point x="250" y="1178" type="line"/>
      <point x="-2" y="0" type="line"/>
    </contour>
  </outline>
</glyph>
<glyph name="saraI-thai" format="1">
  <advance width="0"/>
  <unicode hex="0E34"/>
  <outline>
    <contour>
      <point x="67" y="1342" type="line"/>
      <point x="97" y="1484" type="line"/>
      <point x="-698" y="1484" type="line"/>
      <point x="-728" y="1342" type="line"/>
    </contour>
    <contour>
      <point x="49" y="1230" type="move" name="top"/>
    </contour>
    <contour>
      <point x="42" y="1178" type="move" name="_top"/>
    </contour>
  </outline>
</glyph>
<glyph name="saraUee-thai" format="1">
  <advance width="0"/>
  <unicode hex="0E37"/>
  <outline>
    <contour>
      <point x="67" y="1342" type="line"/>
      <point x="126" y="1619" type="line"/>
      <point x="-84" y="1619" type="line"/>
      <point x="-113" y="1484" type="line"/>
      <point x="-195" y="1484" type="line"/>
      <point x="-166" y="1619" type="line"/>
      <point x="-340" y="1619" type="line"/>
      <point x="-369" y="1484" type="line"/>
      <point x="-698" y="1484" type="line"/>
      <point x="-728" y="1342" type="line"/>
    </contour>
    <contour>
      <point x="67" y="1342" type="move" name="top"/>
    </contour>
    <contour>
      <point x="42" y="1178" type="move" name="_top"/>
    </contour>
  </outline>
</glyph>
<glyph name="phinthu-thai" format="1">
  <advance width="0"/>
  <unicode hex="0E3A"/>
  <outline>
    <contour>
      <point x="-247" y="-195"/>
      <point x="-320" y="-121"/>
      <point x="-410" y="-121" type="curve" smooth="yes"/>
      <point x="-501" y="-121"/>
      <point x="-572" y="-195"/>
      <point x="-572" y="-285" type="curve" smooth="yes"/>
      <point x="-572" y="-375"/>
      <point x="-501" y="-446"/>
      <point x="-410" y="-446" type="curve" smooth="yes"/>
      <point x="-320" y="-446"/>
      <point x="-247" y="-375"/>
      <point x="-247" y="-285" type="curve" smooth="yes"/>
    </contour>
  </outline>
</glyph>
<glyph name="saraAiMaimalai-thai" format="1">
  <advance width="575"/>
  <unicode hex="0E44"/>
  <outline>
    <contour>
      <point x="527" y="118" type="line"/>
      <point x="505" y="108"/>
      <point x="466" y="98"/>
      <point x="425" y="98" type="curve" smooth="yes"/>
      <point x="377" y="98"/>
      <point x="357" y="121"/>
      <point x="357" y="166" type="curve" smooth="yes"/>
      <point x="357" y="183"/>
      <point x="360" y="202"/>
      <point x="365" y="225" type="curve" smooth="yes"/>
      <point x="567" y="1178" type="line" smooth="yes"/>
      <point x="596" y="1316"/>
      <point x="802" y="1422"/>
      <point x="802" y="1574" type="curve" smooth="yes"/>
      <point x="802" y="1722"/>
      <point x="709" y="1797"/>
      <point x="511" y="1797" type="curve"/>
      <point x="313" y="1686" type="line"/>
      <point x="106" y="1825" type="line"/>
      <point x="83" y="1705" type="line"/>
      <point x="315" y="1547" type="line"/>
      <point x="500" y="1660" type="line"/>
      <point x="534" y="1644"/>
      <point x="561" y="1628"/>
      <point x="561" y="1572" type="curve" smooth="yes"/>
      <point x="561" y="1446"/>
      <point x="312" y="1368"/>
      <point x="272" y="1178" type="curve" smooth="yes"/>
      <point x="83" y="285" type="line" smooth="yes"/>
      <point x="76" y="250"/>
      <point x="72" y="218"/>
      <point x="72" y="189" type="curve" smooth="yes"/>
      <point x="72" y="49"/>
      <point x="155" y="-27"/>
      <point x="301" y="-27" type="curve" smooth="yes"/>
      <point x="395" y="-27"/>
      <point x="460" y="-12"/>
      <point x="503" y="4" type="curve"/>
    </contour>
  </outline>
</glyph>
<glyph name="lakkhangyao-thai" format="1">
  <advance width="847"/>
  <unicode hex="0E45"/>
  <outline>
    <contour>
      <point x="822" y="762" type="line" smooth="yes"/>
      <point x="833" y="814"/>
      <point x="838" y="860"/>
      <point x="838" y="901" type="curve" smooth="yes"/>
      <point x="838" y="1106"/>
      <point x="691" y="1188"/>
      <point x="475" y="1188" type="curve" smooth="yes"/>
      <point x="274" y="1188"/>
      <point x="83" y="1095"/>
      <point x="83" y="919" type="curve" smooth="yes"/>
      <point x="83" y="839"/>
      <point x="115" y="772"/>
      <point x="213" y="772" type="curve" smooth="yes"/>
      <point x="273" y="772"/>
      <point x="312" y="786"/>
      <point x="339" y="819" type="curve"/>
      <point x="310" y="850"/>
      <point x="292" y="887"/>
      <point x="292" y="932" type="curve" smooth="yes"/>
      <point x="292" y="1009"/>
      <point x="365" y="1092"/>
      <point x="441" y="1092" type="curve" smooth="yes"/>
      <point x="511" y="1092"/>
      <point x="558" y="1057"/>
      <point x="558" y="963" type="curve" smooth="yes"/>
      <point x="558" y="928"/>
      <point x="552" y="883"/>
      <point x="541" y="829" type="curve" smooth="yes"/>
      <point x="277" y="-414" type="line"/>
      <point x="586" y="-348" type="line"/>
    </contour>
  </outline>
</glyph>
<glyph name="maiEk-thai" format="1">
  <advance width="0"/>
  <unicode hex="0E48"/>
  <outline>
    <contour>
      <point x="58" y="1342" type="line"/>
      <point x="130" y="1679" type="line"/>
      <point x="-133" y="1679" type="line"/>
      <point x="-206" y="1342" type="line"/>
    </contour>
    <contour>
      <point x="58" y="1406" type="move" name="top"/>
    </contour>
    <contour>
      <point x="42" y="1178" type="move" name="_top"/>
    </contour>
  </outline>
</glyph>
<glyph name="maiChattawa-thai" format="1">
  <advance width="0"/>
  <unicode hex="0E4B"/>
  <outline>
    <contour>
      <point x="175" y="1481" type="line"/>
      <point x="197" y="1581" type="line"/>
      <point x="25" y="1581" type="line"/>
      <point x="51" y="1703" type="line"/>
      <point x="-181" y="1703" type="line"/>
      <point x="-207" y="1581" type="line"/>
      <point x="-360" y="1581" type="line"/>
      <point x="-380" y="1481" type="line"/>
      <point x="-229" y="1481" type="line"/>
      <point x="-259" y="1342" type="line"/>
      <point x="-26" y="1342" type="line"/>
      <point x="3" y="1481" type="line"/>
    </contour>
    <contour>
      <point x="3" y="1406" type="move" name="top"/>
    </contour>
    <contour>
      <point x="42" y="1178" type="move" name="_top"/>
    </contour>
  </outline>
</glyph>
<glyph name="yamakkan-thai" format="1">
  <advance width="0"/>
  <unicode hex="0E4E"/>
  <outline>
    <contour>
      <point x="101" y="1734" type="line"/>
      <point x="-112" y="1734" type="line" smooth="yes"/>
      <point x="-208" y="1734"/>
      <point x="-273" y="1692"/>
      <point x="-285" y="1622" type="curve" smooth="yes"/>
      <point x="-294" y="1569" type="line"/>
      <point x="-359" y="1569" type="line" smooth="yes"/>
      <point x="-445" y="1569"/>
      <point x="-494" y="1525"/>
      <point x="-509" y="1450" type="curve" smooth="yes"/>
      <point x="-531" y="1342" type="line"/>
      <point x="-264" y="1342" type="line"/>
      <point x="-249" y="1412" type="line" smooth="yes"/>
      <point x="-240" y="1456"/>
      <point x="-192" y="1461"/>
      <point x="-174" y="1461" type="curve" smooth="yes"/>
      <point x="-118" y="1461" type="line"/>
      <point x="-92" y="1584" type="line" smooth="yes"/>
      <point x="-82" y="1628"/>
      <point x="-35" y="1633"/>
      <point x="-17" y="1633" type="curve" smooth="yes"/>
      <point x="78" y="1633" type="line"/>
    </contour>
    <contour>
      <point x="-150" y="1178" type="move" name="_top"/>
    </contour>
  </outline>
</glyph>
<glyph name="three-thai" format="1">
  <advance width="1254"/>
  <unicode hex="0E53"/>
  <outline>
    <contour>
      <point x="1218" y="641" type="line" smooth="yes"/>
      <point x="1227" y="685"/>
      <point x="1231" y="723"/>
      <point x="1231" y="757" type="curve" smooth="yes"/>
      <point x="1231" y="922"/>
      <point x="1097" y="977"/>
      <point x="980" y="977" type="curve" smooth="yes"/>
      <point x="806" y="977"/>
      <point x="724" y="890"/>
      <point x="701" y="821" type="curve"/>
      <point x="695" y="887"/>
      <point x="655" y="977"/>
      <point x="500" y="977" type="curve" smooth="yes"/>
      <point x="201" y="977"/>
      <point x="29" y="689"/>
      <point x="29" y="349" type="curve" smooth="yes"/>
      <point x="29" y="137"/>
      <point x="115" y="-27"/>
      <point x="410" y="-27" type="curve" smooth="yes"/>
      <point x="560" y="-27"/>
      <point x="666" y="33"/>
      <point x="666" y="144" type="curve" smooth="yes"/>
      <point x="666" y="222"/>
      <point x="623" y="260"/>
      <point x="547" y="260" type="curve" smooth="yes"/>
      <point x="482" y="260"/>
      <point x="426" y="224"/>
      <point x="426" y="140" type="curve" smooth="yes"/>
      <point x="426" y="126"/>
      <point x="428" y="113"/>
      <point x="431" y="101" type="curve"/>
      <point x="358" y="120"/>
      <point x="328" y="161"/>
      <point x="328" y="270" type="curve" smooth="yes"/>
      <point x="328" y="520"/>
      <point x="426" y="852"/>
      <point x="537" y="852" type="curve" smooth="yes"/>
      <point x="568" y="852"/>
      <point x="599" y="833"/>
      <point x="599" y="749" type="curve" smooth="yes"/>
      <point x="599" y="729"/>
      <point x="596" y="705"/>
      <point x="590" y="676" type="curve" smooth="yes"/>
      <point x="536" y="434" type="line"/>
      <point x="710" y="434" type="line"/>
      <point x="777" y="735" type="line" smooth="yes"/>
      <point x="794" y="810"/>
      <point x="849" y="852"/>
      <point x="896" y="852" type="curve" smooth="yes"/>
      <point x="932" y="852"/>
      <point x="949" y="835"/>
      <point x="949" y="792" type="curve" smooth="yes"/>
      <point x="949" y="773"/>
      <point x="946" y="748"/>
      <point x="939" y="717" type="curve" smooth="yes"/>
      <point x="789" y="0" type="line"/>
      <point x="1084" y="0" type="line"/>
    </contour>
  </outline>
</glyph>
<glyph name="seven-thai" format="1">
  <advance width="1603"/>
  <unicode hex="0E57"/>
  <outline>
    <contour>
      <point x="1649" y="1188" type="line"/>
      <point x="1381" y="1188" type="line"/>
      <point x="1188" y="278" type="line" smooth="yes"/>
      <point x="1171" y="198"/>
      <point x="1106" y="158"/>
      <point x="1047" y="158" type="curve"/>
      <point x="1148" y="641" type="line" smooth="yes"/>
      <point x="1157" y="685"/>
      <point x="1161" y="723"/>
      <point x="1161" y="757" type="curve" smooth="yes"/>
      <point x="1161" y="922"/>
      <point x="1027" y="977"/>
      <point x="910" y="977" type="curve" smooth="yes"/>
      <point x="736" y="977"/>
      <point x="693" y="890"/>
      <point x="670" y="821" type="curve"/>
      <point x="664" y="887"/>
      <point x="634" y="977"/>
      <point x="500" y="977" type="curve" smooth="yes"/>
      <point x="201" y="977"/>
      <point x="29" y="689"/>
      <point x="29" y="349" type="curve" smooth="yes"/>
      <point x="29" y="137"/>
      <point x="115" y="-27"/>
      <point x="410" y="-27" type="curve" smooth="yes"/>
      <point x="560" y="-27"/>
      <point x="666" y="33"/>
      <point x="666" y="144" type="curve" smooth="yes"/>
      <point x="666" y="222"/>
      <point x="623" y="260"/>
      <point x="547" y="260" type="curve" smooth="yes"/>
      <point x="482" y="260"/>
      <point x="426" y="224"/>
      <point x="426" y="140" type="curve" smooth="yes"/>
      <point x="426" y="126"/>
      <point x="428" y="113"/>
      <point x="431" y="101" type="curve"/>
      <point x="358" y="120"/>
      <point x="328" y="161"/>
      <point x="328" y="270" type="curve" smooth="yes"/>
      <point x="328" y="520"/>
      <point x="426" y="852"/>
      <point x="537" y="852" type="curve" smooth="yes"/>
      <point x="578" y="852"/>
      <point x="612" y="818"/>
      <point x="612" y="734" type="curve"/>
      <point x="698" y="734" type="line"/>
      <point x="721" y="798"/>
      <point x="761" y="852"/>
      <point x="826" y="852" type="curve" smooth="yes"/>
      <point x="862" y="852"/>
      <point x="888" y="835"/>
      <point x="888" y="792" type="curve" smooth="yes"/>
      <point x="888" y="773"/>
      <point x="885" y="748"/>
      <point x="878" y="717" type="curve" smooth="yes"/>
      <point x="749" y="110" type="line" smooth="yes"/>
      <point x="747" y="101"/>
      <point x="746" y="92"/>
      <point x="746" y="81" type="curve" smooth="yes"/>
      <point x="746" y="33"/>
      <point x="768" y="-27"/>
      <point x="875" y="-27" type="curve" smooth="yes"/>
      <point x="1216" y="-27"/>
      <point x="1403" y="36"/>
      <point x="1471" y="353" type="curve" smooth="yes"/>
    </contour>
  </outline>
</glyph>
<glyph name="ohorngrave" format="1">
  <advance width="899"/>
  <unicode hex="1EDD"/>
  <outline>
    <contour>
      <point x="797" y="763"/>
      <point x="790" y="820"/>
      <point x="776" y="867" type="curve"/>
      <point x="900" y="934"/>
      <point x="1001" y="1093"/>
      <point x="1001" y="1225" type="curve" smooth="yes"/>
      <point x="1001" y="1292"/>
      <point x="967" y="1315"/>
      <point x="925" y="1315" type="curve" smooth="yes"/>
      <point x="888" y="1315"/>
      <point x="846" y="1297"/>
      <point x="814" y="1275" type="curve"/>
      <point x="821" y="1243"/>
      <point x="825" y="1208"/>
      <point x="825" y="1174" type="curve" smooth="yes"/>
      <point x="825" y="1090"/>
      <point x="806" y="1012"/>
      <point x="726" y="966" type="curve"/>
      <point x="683" y="1015"/>
      <point x="620" y="1039"/>
      <point x="535" y="1039" type="curve" smooth="yes"/>
      <point x="228" y="1039"/>
      <point x="-26" y="728"/>
      <point x="-26" y="355" type="curve" smooth="yes"/>
      <point x="-26" y="120"/>
      <point x="77" y="-7"/>
      <point x="271" y="-7" type="curve" smooth="yes"/>
      <point x="568" y="-7"/>
      <point x="797" y="298"/>
      <point x="797" y="695" type="curve" smooth="yes"/>
    </contour>
    <contour>
      <point x="603" y="927"/>
      <point x="632" y="867"/>
      <point x="632" y="765" type="curve" smooth="yes"/>
      <point x="632" y="480"/>
      <point x="492" y="185"/>
      <point x="359" y="185" type="curve" smooth="yes"/>
      <point x="304" y="185"/>
      <point x="279" y="234"/>
      <point x="279" y="345" type="curve" smooth="yes"/>
      <point x="279" y="613"/>
      <point x="427" y="927"/>
      <point x="554" y="927" type="curve" smooth="yes"/>
    </contour>
    <contour>
      <point x="641" y="1149" type="line"/>
      <point x="582" y="1536" type="line"/>
      <point x="367" y="1536" type="line"/>
      <point x="487" y="1149" type="line"/>
    </contour>
  </outline>
</glyph>
<glyph name="colonmonetary" format="1">
  <advance width="786"/>
  <unicode hex="20A1"/>
  <outline>
    <contour>
      <point x="657" y="901"/>
      <point x="692" y="883"/>
      <point x="729" y="883" type="curve" smooth="yes"/>
      <point x="803" y="883"/>
      <point x="858" y="956"/>
      <point x="858" y="1051" type="curve" smooth="yes"/>
      <point x="858" y="1132"/>
      <point x="815" y="1192"/>
      <point x="738" y="1223" type="curve"/>
      <point x="795" y="1470" type="line"/>
      <point x="690" y="1470" type="line"/>
      <point x="640" y="1244" type="line"/>
      <point x="629" y="1245"/>
      <point x="617" y="1245"/>
      <point x="606" y="1245" type="curve" smooth="yes"/>
      <point x="576" y="1245"/>
      <point x="546" y="1242"/>
      <point x="517" y="1237" type="curve"/>
      <point x="569" y="1468" type="line"/>
      <point x="465" y="1468" type="line"/>
      <point x="405" y="1204" type="line"/>
      <point x="182" y="1111"/>
      <point x="16" y="871"/>
      <point x="16" y="600" type="curve" smooth="yes"/>
      <point x="16" y="434"/>
      <point x="77" y="313"/>
      <point x="187" y="247" type="curve"/>
      <point x="117" y="-55" type="line"/>
      <point x="219" y="-55" type="line"/>
      <point x="279" y="209" type="line"/>
      <point x="316" y="199"/>
      <point x="356" y="193"/>
      <point x="400" y="193" type="curve"/>
      <point x="342" y="-55" type="line"/>
      <point x="444" y="-55" type="line"/>
      <point x="503" y="201" type="line"/>
      <point x="624" y="224"/>
      <point x="698" y="293"/>
      <point x="698" y="391" type="curve" smooth="yes"/>
      <point x="698" y="416"/>
      <point x="694" y="440"/>
      <point x="682" y="471" type="curve"/>
      <point x="618" y="401"/>
      <point x="555" y="371"/>
      <point x="469" y="371" type="curve" smooth="yes"/>
      <point x="326" y="371"/>
      <point x="260" y="449"/>
      <point x="260" y="625" type="curve" smooth="yes"/>
      <point x="260" y="897"/>
      <point x="416" y="1137"/>
      <point x="594" y="1137" type="curve" smooth="yes"/>
      <point x="647" y="1137"/>
      <point x="672" y="1114"/>
      <point x="672" y="1061" type="curve" smooth="yes"/>
      <point x="672" y="1018"/>
      <point x="657" y="961"/>
      <point x="637" y="928" type="curve"/>
    </contour>
  </outline>
</glyph>
<glyph name="uni20A9" format="1">
  <advance width="1722"/>
  <unicode hex="20A9"/>
  <outline>
    <contour>
      <point x="74" y="729" type="line"/>
      <point x="293" y="729" type="line"/>
      <point x="297" y="596" type="line"/>
      <point x="51" y="596" type="line"/>
      <point x="23" y="494" type="line"/>
      <point x="301" y="494" type="line"/>
      <point x="317" y="0" type="line"/>
      <point x="598" y="0" type="line"/>
      <point x="782" y="494" type="line"/>
      <point x="1013" y="494" type="line"/>
      <point x="1030" y="0" type="line"/>
      <point x="1307" y="0" type="line"/>
      <point x="1491" y="494" type="line"/>
      <point x="1810" y="494" type="line"/>
      <point x="1839" y="596" type="line"/>
      <point x="1529" y="596" type="line"/>
      <point x="1579" y="729" type="line"/>
      <point x="1862" y="729" type="line"/>
      <point x="1890" y="831" type="line"/>
      <point x="1617" y="831" type="line"/>
      <point x="1882" y="1540" type="line"/>
      <point x="1739" y="1540" type="line"/>
      <point x="1495" y="831" type="line"/>
      <point x="1294" y="831" type="line"/>
      <point x="1294" y="1540" type="line"/>
      <point x="1030" y="1540" type="line"/>
      <point x="786" y="831" type="line"/>
      <point x="581" y="831" type="line"/>
      <point x="575" y="1540" type="line"/>
      <point x="266" y="1540" type="line"/>
      <point x="289" y="831" type="line"/>
      <point x="102" y="831" type="line"/>
    </contour>
    <contour>
      <point x="870" y="729" type="line"/>
      <point x="1005" y="729" type="line"/>
      <point x="1010" y="596" type="line"/>
      <point x="820" y="596" type="line"/>
    </contour>
    <contour>
      <point x="582" y="729" type="line"/>
      <point x="751" y="729" type="line"/>
      <point x="705" y="596" type="line"/>
      <point x="583" y="596" type="line"/>
    </contour>
    <contour>
      <point x="1294" y="729" type="line"/>
      <point x="1460" y="729" type="line"/>
      <point x="1414" y="596" type="line"/>
      <point x="1294" y="596" type="line"/>
    </contour>
    <contour>
      <point x="987" y="1042" type="line"/>
      <point x="995" y="1042" type="line"/>
      <point x="1002" y="831" type="line"/>
      <point x="908" y="831" type="line"/>
    </contour>
    <contour>
      <point x="586" y="272" type="line"/>
      <point x="584" y="494" type="line"/>
      <point x="670" y="494" type="line"/>
      <point x="594" y="272" type="line"/>
    </contour>
    <contour>
      <point x="1294" y="272" type="line"/>
      <point x="1294" y="494" type="line"/>
      <point x="1379" y="494" type="line"/>
      <point x="1303" y="272" type="line"/>
    </contour>
  </outline>
</glyph>
<glyph name="Euro" format="1">
  <advance width="1038"/>
  <unicode hex="20AC"/>
  <outline>
    <contour>
      <point x="90" y="817" type="line"/>
      <point x="218" y="817" type="line"/>
      <point x="209" y="773"/>
      <point x="203" y="728"/>
      <point x="199" y="682" type="curve"/>
      <point x="68" y="682" type="line"/>
      <point x="39" y="580" type="line"/>
      <point x="195" y="580" type="line"/>
      <point x="195" y="317"/>
      <point x="275" y="-12"/>
      <point x="623" y="-12" type="curve" smooth="yes"/>
      <point x="821" y="-12"/>
      <point x="1028" y="84"/>
      <point x="1038" y="324" type="curve"/>
      <point x="963" y="260"/>
      <point x="852" y="211"/>
      <point x="750" y="211" type="curve" smooth="yes"/>
      <point x="586" y="211"/>
      <point x="522" y="336"/>
      <point x="522" y="535" type="curve" smooth="yes"/>
      <point x="522" y="580" type="line"/>
      <point x="913" y="580" type="line"/>
      <point x="942" y="682" type="line"/>
      <point x="528" y="682" type="line"/>
      <point x="531" y="728"/>
      <point x="536" y="773"/>
      <point x="543" y="817" type="curve"/>
      <point x="965" y="817" type="line"/>
      <point x="993" y="920" type="line"/>
      <point x="563" y="920" type="line"/>
      <point x="624" y="1194"/>
      <point x="750" y="1397"/>
      <point x="907" y="1397" type="curve" smooth="yes"/>
      <point x="956" y="1397"/>
      <point x="995" y="1378"/>
      <point x="995" y="1298" type="curve" smooth="yes"/>
      <point x="995" y="1247"/>
      <point x="958" y="1169"/>
      <point x="922" y="1149" type="curve"/>
      <point x="948" y="1075"/>
      <point x="997" y="1040"/>
      <point x="1042" y="1040" type="curve" smooth="yes"/>
      <point x="1165" y="1040"/>
      <point x="1219" y="1165"/>
      <point x="1219" y="1276" type="curve" smooth="yes"/>
      <point x="1219" y="1456"/>
      <point x="1102" y="1559"/>
      <point x="918" y="1559" type="curve" smooth="yes"/>
      <point x="619" y="1559"/>
      <point x="350" y="1283"/>
      <point x="243" y="920" type="curve"/>
      <point x="119" y="920" type="line"/>
    </contour>
  </outline>
</glyph>
<glyph name="uni20BA" format="1">
  <advance width="932"/>
  <unicode hex="20BA"/>
  <outline>
    <contour>
      <point x="63" y="805" type="line"/>
      <point x="321" y="899" type="line"/>
      <point x="288" y="741" type="line"/>
      <point x="98" y="672" type="line"/>
      <point x="98" y="563" type="line"/>
      <point x="263" y="623" type="line"/>
      <point x="131" y="4" type="line"/>
      <point x="193" y="-6"/>
      <point x="248" y="-12"/>
      <point x="307" y="-12" type="curve" smooth="yes"/>
      <point x="719" y="-12"/>
      <point x="1087" y="227"/>
      <point x="1087" y="494" type="curve" smooth="yes"/>
      <point x="1087" y="629"/>
      <point x="997" y="700"/>
      <point x="831" y="700" type="curve"/>
      <point x="862" y="662"/>
      <point x="887" y="575"/>
      <point x="887" y="506" type="curve" smooth="yes"/>
      <point x="887" y="322"/>
      <point x="715" y="180"/>
      <point x="457" y="154" type="curve"/>
      <point x="582" y="738" type="line"/>
      <point x="928" y="864" type="line"/>
      <point x="928" y="973" type="line"/>
      <point x="607" y="856" type="line"/>
      <point x="641" y="1014" type="line"/>
      <point x="893" y="1106" type="line"/>
      <point x="893" y="1214" type="line"/>
      <point x="666" y="1132" type="line"/>
      <point x="754" y="1544" type="line"/>
      <point x="459" y="1544" type="line"/>
      <point x="346" y="1016" type="line"/>
      <point x="63" y="913" type="line"/>
    </contour>
  </outline>
</glyph>
<glyph name="onethird" format="1">
  <advance width="1499"/>
  <unicode hex="2153"/>
  <outline>
    <contour>
      <point x="1055" y="346"/>
      <point x="1031" y="365"/>
      <point x="992" y="365" type="curve" smooth="yes"/>
      <point x="910" y="365"/>
      <point x="852" y="297"/>
      <point x="852" y="203" type="curve" smooth="yes"/>
      <point x="852" y="76"/>
      <point x="949" y="-12"/>
      <point x="1086" y="-12" type="curve" smooth="yes"/>
      <point x="1256" y="-12"/>
      <point x="1403" y="117"/>
      <point x="1403" y="264" type="curve" smooth="yes"/>
      <point x="1403" y="365"/>
      <point x="1336" y="440"/>
      <point x="1229" y="463" type="curve"/>
      <point x="1229" y="471" type="line"/>
      <point x="1344" y="504"/>
      <point x="1418" y="580"/>
      <point x="1418" y="672" type="curve" smooth="yes"/>
      <point x="1418" y="776"/>
      <point x="1325" y="854"/>
      <point x="1196" y="854" type="curve" smooth="yes"/>
      <point x="1063" y="854"/>
      <point x="953" y="770"/>
      <point x="953" y="670" type="curve" smooth="yes"/>
      <point x="953" y="608"/>
      <point x="994" y="567"/>
      <point x="1053" y="567" type="curve" smooth="yes"/>
      <point x="1082" y="567"/>
      <point x="1110" y="582"/>
      <point x="1141" y="606" type="curve"/>
      <point x="1139" y="612" type="line"/>
      <point x="1108" y="627"/>
      <point x="1092" y="657"/>
      <point x="1092" y="700" type="curve" smooth="yes"/>
      <point x="1092" y="754"/>
      <point x="1125" y="795"/>
      <point x="1172" y="795" type="curve" smooth="yes"/>
      <point x="1221" y="795"/>
      <point x="1252" y="752"/>
      <point x="1252" y="684" type="curve" smooth="yes"/>
      <point x="1252" y="586"/>
      <point x="1180" y="504"/>
      <point x="1069" y="469" type="curve"/>
      <point x="1069" y="461" type="line"/>
      <point x="1158" y="449"/>
      <point x="1209" y="375"/>
      <point x="1209" y="260" type="curve" smooth="yes"/>
      <point x="1209" y="145"/>
      <point x="1153" y="66"/>
      <point x="1076" y="66" type="curve" smooth="yes"/>
      <point x="1024" y="66"/>
      <point x="988" y="111"/>
      <point x="988" y="174" type="curve" smooth="yes"/>
      <point x="988" y="236"/>
      <point x="1020" y="281"/>
      <point x="1076" y="295" type="curve"/>
    </contour>
    <contour>
      <point x="1214" y="1540" type="line"/>
      <point x="1067" y="1540" type="line"/>
      <point x="215" y="0" type="line"/>
      <point x="362" y="0" type="line"/>
    </contour>
    <contour>
      <point x="558" y="1559" type="line"/>
      <point x="551" y="1563" type="line"/>
      <point x="441" y="1507"/>
      <point x="324" y="1475"/>
      <point x="215" y="1475" type="curve"/>
      <point x="211" y="1462"/>
      <point x="209" y="1452"/>
      <point x="209" y="1442" type="curve" smooth="yes"/>
      <point x="209" y="1403"/>
      <point x="234" y="1378"/>
      <point x="283" y="1378" type="curve" smooth="yes"/>
      <point x="299" y="1378"/>
      <point x="322" y="1382"/>
      <point x="345" y="1389" type="curve"/>
      <point x="201" y="705" type="line"/>
      <point x="375" y="705" type="line"/>
    </contour>
  </outline>
</glyph>
<glyph name="twothirds" format="1">
  <advance width="1499"/>
  <unicode hex="2154"/>
  <outline>
    <contour>
      <point x="1298" y="1540" type="line"/>
      <point x="1151" y="1540" type="line"/>
      <point x="299" y="0" type="line"/>
      <point x="446" y="0" type="line"/>
    </contour>
    <contour>
      <point x="594" y="901" type="line"/>
      <point x="561" y="864"/>
      <point x="533" y="852"/>
      <point x="498" y="852" type="curve" smooth="yes"/>
      <point x="449" y="852"/>
      <point x="379" y="877"/>
      <point x="305" y="877" type="curve" smooth="yes"/>
      <point x="283" y="877"/>
      <point x="262" y="877"/>
      <point x="236" y="868" type="curve"/>
      <point x="324" y="1042"/>
      <point x="649" y="1163"/>
      <point x="649" y="1378" type="curve" smooth="yes"/>
      <point x="649" y="1495"/>
      <point x="555" y="1563"/>
      <point x="420" y="1563" type="curve" smooth="yes"/>
      <point x="260" y="1563"/>
      <point x="174" y="1462"/>
      <point x="174" y="1372" type="curve" smooth="yes"/>
      <point x="174" y="1313"/>
      <point x="215" y="1280"/>
      <point x="266" y="1280" type="curve" smooth="yes"/>
      <point x="293" y="1280"/>
      <point x="326" y="1294"/>
      <point x="350" y="1317" type="curve"/>
      <point x="348" y="1323" type="line"/>
      <point x="320" y="1335"/>
      <point x="297" y="1368"/>
      <point x="297" y="1411" type="curve" smooth="yes"/>
      <point x="297" y="1462"/>
      <point x="334" y="1503"/>
      <point x="385" y="1503" type="curve" smooth="yes"/>
      <point x="438" y="1503"/>
      <point x="461" y="1452"/>
      <point x="461" y="1382" type="curve" smooth="yes"/>
      <point x="461" y="1110"/>
      <point x="100" y="973"/>
      <point x="100" y="754" type="curve" smooth="yes"/>
      <point x="100" y="735"/>
      <point x="102" y="719"/>
      <point x="107" y="700" type="curve"/>
      <point x="115" y="700" type="line"/>
      <point x="162" y="725"/>
      <point x="199" y="733"/>
      <point x="236" y="733" type="curve" smooth="yes"/>
      <point x="320" y="733"/>
      <point x="395" y="690"/>
      <point x="465" y="690" type="curve" smooth="yes"/>
      <point x="545" y="690"/>
      <point x="614" y="745"/>
      <point x="614" y="827" type="curve" smooth="yes"/>
      <point x="614" y="848"/>
      <point x="610" y="872"/>
      <point x="600" y="899" type="curve"/>
    </contour>
    <contour>
      <point x="1083" y="346"/>
      <point x="1059" y="365"/>
      <point x="1020" y="365" type="curve" smooth="yes"/>
      <point x="938" y="365"/>
      <point x="880" y="297"/>
      <point x="880" y="203" type="curve" smooth="yes"/>
      <point x="880" y="76"/>
      <point x="977" y="-12"/>
      <point x="1114" y="-12" type="curve" smooth="yes"/>
      <point x="1284" y="-12"/>
      <point x="1431" y="117"/>
      <point x="1431" y="264" type="curve" smooth="yes"/>
      <point x="1431" y="365"/>
      <point x="1364" y="440"/>
      <point x="1257" y="463" type="curve"/>
      <point x="1257" y="471" type="line"/>
      <point x="1372" y="504"/>
      <point x="1446" y="580"/>
      <point x="1446" y="672" type="curve" smooth="yes"/>
      <point x="1446" y="776"/>
      <point x="1353" y="854"/>
      <point x="1224" y="854" type="curve" smooth="yes"/>
      <point x="1091" y="854"/>
      <point x="981" y="770"/>
      <point x="981" y="670" type="curve" smooth="yes"/>
      <point x="981" y="608"/>
      <point x="1022" y="567"/>
      <point x="1081" y="567" type="curve" smooth="yes"/>
      <point x="1110" y="567"/>
      <point x="1138" y="582"/>
      <point x="1169" y="606" type="curve"/>
      <point x="1167" y="612" type="line"/>
      <point x="1136" y="627"/>
      <point x="1120" y="657"/>
      <point x="1120" y="700" type="curve" smooth="yes"/>
      <point x="1120" y="754"/>
      <point x="1153" y="795"/>
      <point x="1200" y="795" type="curve" smooth="yes"/>
      <point x="1249" y="795"/>
      <point x="1280" y="752"/>
      <point x="1280" y="684" type="curve" smooth="yes"/>
      <point x="1280" y="586"/>
      <point x="1208" y="504"/>
      <point x="1097" y="469" type="curve"/>
      <point x="1097" y="461" type="line"/>
      <point x="1186" y="449"/>
      <point x="1237" y="375"/>
      <point x="1237" y="260" type="curve" smooth="yes"/>
      <point x="1237" y="145"/>
      <point x="1181" y="66"/>
      <point x="1104" y="66" type="curve" smooth="yes"/>
      <point x="1052" y="66"/>
      <point x="1016" y="111"/>
      <point x="1016" y="174" type="curve" smooth="yes"/>
      <point x="1016" y="236"/>
      <point x="1048" y="281"/>
      <point x="1104" y="295" type="curve"/>
    </contour>
  </outline>
</glyph>
<glyph name="fiveeighths" format="1">
  <advance width="1499"/>
  <unicode hex="215D"/>
  <outline>
    <contour>
      <point x="572" y="1536"/>
      <point x="506" y="1526"/>
      <point x="439" y="1526" type="curve" smooth="yes"/>
      <point x="381" y="1526"/>
      <point x="322" y="1532"/>
      <point x="256" y="1548" type="curve"/>
      <point x="158" y="1083" type="line"/>
      <point x="164" y="1079" type="line"/>
      <point x="211" y="1116"/>
      <point x="275" y="1141"/>
      <point x="324" y="1141" type="curve" smooth="yes"/>
      <point x="398" y="1141"/>
      <point x="443" y="1077"/>
      <point x="443" y="969" type="curve" smooth="yes"/>
      <point x="443" y="852"/>
      <point x="381" y="766"/>
      <point x="299" y="766" type="curve" smooth="yes"/>
      <point x="246" y="766"/>
      <point x="215" y="799"/>
      <point x="215" y="856" type="curve" smooth="yes"/>
      <point x="215" y="918"/>
      <point x="252" y="958"/>
      <point x="312" y="963" type="curve"/>
      <point x="295" y="1010"/>
      <point x="267" y="1032"/>
      <point x="226" y="1032" type="curve" smooth="yes"/>
      <point x="148" y="1032"/>
      <point x="86" y="963"/>
      <point x="86" y="874" type="curve" smooth="yes"/>
      <point x="86" y="768"/>
      <point x="177" y="694"/>
      <point x="306" y="694" type="curve" smooth="yes"/>
      <point x="488" y="694"/>
      <point x="637" y="838"/>
      <point x="637" y="1012" type="curve" smooth="yes"/>
      <point x="637" y="1147"/>
      <point x="549" y="1235"/>
      <point x="416" y="1235" type="curve" smooth="yes"/>
      <point x="369" y="1235"/>
      <point x="324" y="1225"/>
      <point x="277" y="1200" type="curve"/>
      <point x="326" y="1425" type="line"/>
      <point x="375" y="1399"/>
      <point x="437" y="1382"/>
      <point x="494" y="1382" type="curve" smooth="yes"/>
      <point x="592" y="1382"/>
      <point x="650" y="1427"/>
      <point x="650" y="1503" type="curve" smooth="yes"/>
      <point x="650" y="1520"/>
      <point x="646" y="1540"/>
      <point x="639" y="1561" type="curve"/>
    </contour>
    <contour>
      <point x="1271" y="1540" type="line"/>
      <point x="1124" y="1540" type="line"/>
      <point x="272" y="0" type="line"/>
      <point x="419" y="0" type="line"/>
    </contour>
    <contour>
      <point x="813" y="80"/>
      <point x="922" y="-12"/>
      <point x="1078" y="-12" type="curve" smooth="yes"/>
      <point x="1250" y="-12"/>
      <point x="1387" y="104"/>
      <point x="1387" y="248" type="curve" smooth="yes"/>
      <point x="1387" y="354"/>
      <point x="1312" y="426"/>
      <point x="1242" y="493" type="curve"/>
      <point x="1357" y="551"/>
      <point x="1416" y="617"/>
      <point x="1416" y="692" type="curve" smooth="yes"/>
      <point x="1416" y="784"/>
      <point x="1321" y="854"/>
      <point x="1192" y="854" type="curve" smooth="yes"/>
      <point x="1047" y="854"/>
      <point x="936" y="764"/>
      <point x="936" y="649" type="curve" smooth="yes"/>
      <point x="936" y="574"/>
      <point x="982" y="513"/>
      <point x="1036" y="455" type="curve"/>
      <point x="884" y="392"/>
      <point x="813" y="314"/>
      <point x="813" y="209" type="curve" smooth="yes"/>
    </contour>
    <contour>
      <point x="1198" y="129"/>
      <point x="1145" y="68"/>
      <point x="1080" y="68" type="curve" smooth="yes"/>
      <point x="1016" y="68"/>
      <point x="973" y="123"/>
      <point x="973" y="205" type="curve" smooth="yes"/>
      <point x="973" y="285"/>
      <point x="1013" y="358"/>
      <point x="1083" y="406" type="curve"/>
      <point x="1143" y="344"/>
      <point x="1198" y="282"/>
      <point x="1198" y="205" type="curve" smooth="yes"/>
    </contour>
    <contour>
      <point x="1117" y="752"/>
      <point x="1157" y="799"/>
      <point x="1211" y="799" type="curve" smooth="yes"/>
      <point x="1256" y="799"/>
      <point x="1284" y="766"/>
      <point x="1284" y="713" type="curve" smooth="yes"/>
      <point x="1284" y="655"/>
      <point x="1249" y="588"/>
      <point x="1194" y="539" type="curve"/>
      <point x="1151" y="584"/>
      <point x="1117" y="630"/>
      <point x="1117" y="688" type="curve" smooth="yes"/>
    </contour>
  </outline>
</glyph>
<glyph name="seveneighths" format="1">
  <advance width="1499"/>
  <unicode hex="215E"/>
  <outline>
    <contour>
      <point x="708" y="1550" type="line"/>
      <point x="645" y="1534"/>
      <point x="593" y="1526"/>
      <point x="548" y="1526" type="curve" smooth="yes"/>
      <point x="460" y="1526"/>
      <point x="395" y="1563"/>
      <point x="321" y="1563" type="curve" smooth="yes"/>
      <point x="225" y="1563"/>
      <point x="163" y="1507"/>
      <point x="163" y="1423" type="curve" smooth="yes"/>
      <point x="163" y="1401"/>
      <point x="167" y="1376"/>
      <point x="178" y="1354" type="curve"/>
      <point x="184" y="1352" type="line"/>
      <point x="219" y="1393"/>
      <point x="247" y="1411"/>
      <point x="292" y="1411" type="curve" smooth="yes"/>
      <point x="350" y="1411"/>
      <point x="395" y="1386"/>
      <point x="452" y="1386" type="curve" smooth="yes"/>
      <point x="475" y="1386"/>
      <point x="493" y="1389"/>
      <point x="518" y="1395" type="curve"/>
      <point x="518" y="1311"/>
      <point x="180" y="1063"/>
      <point x="180" y="829" type="curve" smooth="yes"/>
      <point x="180" y="745"/>
      <point x="227" y="692"/>
      <point x="301" y="692" type="curve" smooth="yes"/>
      <point x="329" y="692"/>
      <point x="358" y="700"/>
      <point x="391" y="715" type="curve"/>
      <point x="378" y="750"/>
      <point x="370" y="791"/>
      <point x="370" y="831" type="curve" smooth="yes"/>
      <point x="370" y="1126"/>
      <point x="714" y="1442"/>
      <point x="714" y="1546" type="curve"/>
    </contour>
    <contour>
      <point x="1210" y="1540" type="line"/>
      <point x="1063" y="1540" type="line"/>
      <point x="211" y="0" type="line"/>
      <point x="358" y="0" type="line"/>
    </contour>
    <contour>
      <point x="813" y="80"/>
      <point x="922" y="-12"/>
      <point x="1078" y="-12" type="curve" smooth="yes"/>
      <point x="1250" y="-12"/>
      <point x="1387" y="104"/>
      <point x="1387" y="248" type="curve" smooth="yes"/>
      <point x="1387" y="354"/>
      <point x="1312" y="426"/>
      <point x="1242" y="493" type="curve"/>
      <point x="1357" y="551"/>
      <point x="1416" y="617"/>
      <point x="1416" y="692" type="curve" smooth="yes"/>
      <point x="1416" y="784"/>
      <point x="1321" y="854"/>
      <point x="1192" y="854" type="curve" smooth="yes"/>
      <point x="1047" y="854"/>
      <point x="936" y="764"/>
      <point x="936" y="649" type="curve" smooth="yes"/>
      <point x="936" y="574"/>
      <point x="982" y="513"/>
      <point x="1036" y="455" type="curve"/>
      <point x="884" y="392"/>
      <point x="813" y="314"/>
      <point x="813" y="209" type="curve" smooth="yes"/>
    </contour>
    <contour>
      <point x="1198" y="129"/>
      <point x="1145" y="68"/>
      <point x="1080" y="68" type="curve" smooth="yes"/>
      <point x="1016" y="68"/>
      <point x="973" y="123"/>
      <point x="973" y="205" type="curve" smooth="yes"/>
      <point x="973" y="285"/>
      <point x="1013" y="358"/>
      <point x="1083" y="406" type="curve"/>
      <point x="1143" y="344"/>
      <point x="1198" y="282"/>
      <point x="1198" y="205" type="curve" smooth="yes"/>
    </contour>
    <contour>
      <point x="1117" y="752"/>
      <point x="1157" y="799"/>
      <point x="1211" y="799" type="curve" smooth="yes"/>
      <point x="1256" y="799"/>
      <point x="1284" y="766"/>
      <point x="1284" y="713" type="curve" smooth="yes"/>
      <point x="1284" y="655"/>
      <point x="1249" y="588"/>
      <point x="1194" y="539" type="curve"/>
      <point x="1151" y="584"/>
      <point x="1117" y="630"/>
      <point x="1117" y="688" type="curve" smooth="yes"/>
    </contour>
  </outline>
</glyph>
<glyph name="minus" format="1">
  <advance width="965"/>
  <unicode hex="2212"/>
  <outline>
    <contour>
      <point x="834" y="778" type="line"/>
      <point x="117" y="778" type="line"/>
      <point x="80" y="616" type="line"/>
      <point x="799" y="616" type="line"/>
    </contour>
  </outline>
</glyph>
<glyph name="eight.denominator" format="1">
  <advance width="725"/>
  <outline>
    <contour>
      <point x="102" y="80"/>
      <point x="211" y="-12"/>
      <point x="367" y="-12" type="curve" smooth="yes"/>
      <point x="539" y="-12"/>
      <point x="676" y="104"/>
      <point x="676" y="248" type="curve" smooth="yes"/>
      <point x="676" y="354"/>
      <point x="601" y="426"/>
      <point x="531" y="493" type="curve"/>
      <point x="646" y="551"/>
      <point x="705" y="617"/>
      <point x="705" y="692" type="curve" smooth="yes"/>
      <point x="705" y="784"/>
      <point x="610" y="854"/>
      <point x="481" y="854" type="curve" smooth="yes"/>
      <point x="336" y="854"/>
      <point x="225" y="764"/>
      <point x="225" y="649" type="curve" smooth="yes"/>
      <point x="225" y="574"/>
      <point x="271" y="513"/>
      <point x="325" y="455" type="curve"/>
      <point x="173" y="392"/>
      <point x="102" y="314"/>
      <point x="102" y="209" type="curve" smooth="yes"/>
    </contour>
    <contour>
      <point x="487" y="129"/>
      <point x="434" y="68"/>
      <point x="369" y="68" type="curve" smooth="yes"/>
      <point x="305" y="68"/>
      <point x="262" y="123"/>
      <point x="262" y="205" type="curve" smooth="yes"/>
      <point x="262" y="285"/>
      <point x="302" y="358"/>
      <point x="372" y="406" type="curve"/>
      <point x="432" y="344"/>
      <point x="487" y="282"/>
      <point x="487" y="205" type="curve" smooth="yes"/>
    </contour>
    <contour>
      <point x="406" y="752"/>
      <point x="446" y="799"/>
      <point x="500" y="799" type="curve" smooth="yes"/>
      <point x="545" y="799"/>
      <point x="573" y="766"/>
      <point x="573" y="713" type="curve" smooth="yes"/>
      <point x="573" y="655"/>
      <point x="538" y="588"/>
      <point x="483" y="539" type="curve"/>
      <point x="440" y="584"/>
      <point x="406" y="630"/>
      <point x="406" y="688" type="curve" smooth="yes"/>
    </contour>
  </outline>
</glyph>
<glyph name="maiChattawa-thai.narrow" format="1">
  <advance width="0"/>
  <outline>
    <contour>
      <point x="-230" y="1481" type="line"/>
      <point x="-208" y="1581" type="line"/>
      <point x="-350" y="1581" type="line"/>
      <point x="-324" y="1703" type="line"/>
      <point x="-556" y="1703" type="line"/>
      <point x="-582" y="1581" type="line"/>
      <point x="-722" y="1581" type="line"/>
      <point x="-742" y="1481" type="line"/>
      <point x="-604" y="1481" type="line"/>
      <point x="-634" y="1342" type="line"/>
      <point x="-401" y="1342" type="line"/>
      <point x="-372" y="1481" type="line"/>
    </contour>
    <contour>
      <point x="-390" y="1372" type="move" name="top"/>
    </contour>
    <contour>
      <point x="-397" y="1178" type="move" name="_top"/>
    </contour>
  </outline>
</glyph>
<glyph name="maiEk-thai.small" format="1">
  <advance width="0"/>
  <outline>
    <contour>
      <point x="136" y="1720" type="line"/>
      <point x="190" y="1970" type="line"/>
      <point x="-50" y="1970" type="line"/>
      <point x="-104" y="1720" type="line"/>
    </contour>
    <contour>
      <point x="98" y="1532" type="move" name="top"/>
    </contour>
    <contour>
      <point x="63" y="1341" type="move" name="_top"/>
    </contour>
  </outline>
</glyph>
<glyph name="maiTri-thai.narrow" format="1">
  <advance width="0"/>
  <outline>
    <contour>
      <point x="-245" y="1342" type="line"/>
      <point x="-219" y="1466" type="line"/>
      <point x="-326" y="1466" type="line"/>
      <point x="-316" y="1505"/>
      <point x="-314" y="1513"/>
      <point x="-314" y="1521" type="curve" smooth="yes"/>
      <point x="-314" y="1587"/>
      <point x="-352" y="1632"/>
      <point x="-448" y="1632" type="curve" smooth="yes"/>
      <point x="-512" y="1632"/>
      <point x="-570" y="1608"/>
      <point x="-606" y="1551" type="curve"/>
      <point x="-620" y="1601"/>
      <point x="-656" y="1637"/>
      <point x="-753" y="1637" type="curve" smooth="yes"/>
      <point x="-884" y="1637"/>
      <point x="-942" y="1536"/>
      <point x="-942" y="1443" type="curve" smooth="yes"/>
      <point x="-942" y="1361"/>
      <point x="-881" y="1321"/>
      <point x="-807" y="1321" type="curve" smooth="yes"/>
      <point x="-769" y="1321"/>
      <point x="-745" y="1328"/>
      <point x="-714" y="1337" type="curve"/>
      <point x="-698" y="1405" type="line"/>
      <point x="-705" y="1403"/>
      <point x="-713" y="1402"/>
      <point x="-720" y="1402" type="curve" smooth="yes"/>
      <point x="-746" y="1402"/>
      <point x="-758" y="1426"/>
      <point x="-758" y="1452" type="curve" smooth="yes"/>
      <point x="-758" y="1482"/>
      <point x="-742" y="1514"/>
      <point x="-711" y="1514" type="curve" smooth="yes"/>
      <point x="-670" y="1514"/>
      <point x="-656" y="1475"/>
      <point x="-656" y="1443" type="curve" smooth="yes"/>
      <point x="-656" y="1439"/>
      <point x="-657" y="1435"/>
      <point x="-657" y="1431" type="curve"/>
      <point x="-599" y="1431" type="line"/>
      <point x="-588" y="1487"/>
      <point x="-561" y="1516"/>
      <point x="-533" y="1516" type="curve" smooth="yes"/>
      <point x="-515" y="1516"/>
      <point x="-510" y="1498"/>
      <point x="-510" y="1482" type="curve" smooth="yes"/>
      <point x="-510" y="1476"/>
      <point x="-511" y="1469"/>
      <point x="-512" y="1465" type="curve"/>
      <point x="-538" y="1342" type="line"/>
    </contour>
    <contour>
      <point x="-288" y="1342" type="move" name="top"/>
    </contour>
    <contour>
      <point x="-325" y="1178" type="move" name="_top"/>
    </contour>
  </outline>
</glyph>
